<?xml version="1.0" standalone="no"?>
<!DOCTYPE svg PUBLIC "-//W3C//DTD SVG 20010904//EN"
 "http://www.w3.org/TR/2001/REC-SVG-20010904/DTD/svg10.dtd">
<svg version="1.0" xmlns="http://www.w3.org/2000/svg"
 width="129.000000pt" height="108.000000pt" viewBox="0 0 129.000000 108.000000"
 preserveAspectRatio="xMidYMid meet">

<g transform="translate(0.000000,108.000000) scale(0.100000,-0.100000)"
fill="#000000" stroke="none">
<path d="M25 778 c26 -82 50 -101 165 -124 47 -9 87 -18 89 -20 5 -5 -126 4
-171 11 -37 6 -35 -6 6 -49 l33 -36 94 -1 c92 -2 93 -2 39 -11 -30 -5 -70 -11
-88 -14 -39 -6 -34 -17 21 -45 47 -24 113 -22 168 6 47 25 25 -1 -27 -31 -51
-30 -47 -39 24 -50 30 -5 49 -2 67 10 38 25 42 19 10 -14 l-29 -30 36 0 c21 0
44 7 54 18 17 16 18 16 11 0 -5 -14 -1 -18 15 -18 20 0 20 -1 5 -18 -10 -10
-14 -22 -10 -26 4 -4 -4 -17 -18 -29 -14 -12 -20 -19 -14 -15 6 4 17 2 24 -5
10 -9 11 -9 6 4 -3 9 1 22 10 29 8 7 15 9 15 4 0 -4 7 1 15 12 8 10 15 15 15
11 0 -19 -34 -85 -57 -109 -28 -29 -22 -35 21 -18 24 9 26 8 20 -14 -8 -35 11
-40 35 -10 l21 27 0 -30 c0 -16 6 -38 14 -49 14 -18 15 -18 25 9 6 16 11 37
11 48 0 18 3 17 25 -8 l24 -28 1 32 c0 31 1 32 26 22 33 -12 42 -5 20 17 -16
15 -56 87 -56 99 0 3 6 3 13 -2 31 -20 54 2 30 29 -15 17 -14 18 7 18 19 0 21
2 10 15 -7 9 -10 18 -7 21 3 3 10 -4 17 -15 8 -15 20 -21 45 -21 42 0 43 5 8
44 l-28 29 32 -21 c34 -24 71 -27 121 -9 l32 12 -55 33 c-30 18 -55 35 -55 37
0 2 23 -5 50 -16 71 -27 118 -24 169 9 l42 27 -28 7 c-15 4 -55 11 -88 15
l-60 8 88 3 c97 3 121 13 150 61 l18 31 -28 -5 c-52 -8 -177 -16 -172 -10 3 2
43 12 88 20 46 9 91 21 101 27 19 12 43 49 59 90 l10 26 -79 -33 c-70 -30
-230 -74 -320 -89 -28 -5 -39 -14 -55 -44 -23 -42 -88 -83 -105 -66 -6 6 -13
27 -17 47 -5 31 -3 37 13 37 31 0 -6 28 -41 31 -57 4 -62 1 -85 -61 -12 -33
-28 -60 -35 -60 -24 0 -80 46 -95 77 -14 29 -21 32 -100 48 -119 24 -243 61
-301 91 l-51 25 7 -23z"/>
<path d="M112 783 c5 -24 141 -64 334 -99 13 -2 24 -14 28 -29 11 -43 82 -96
98 -72 4 7 -5 16 -23 24 -16 7 -39 28 -50 48 -12 19 -31 37 -43 39 -123 25
-223 52 -279 76 -55 23 -68 26 -65 13z"/>
<path d="M1150 778 c-68 -30 -191 -65 -252 -73 -64 -8 -67 -10 -90 -50 -9 -16
-30 -37 -47 -45 -33 -16 -36 -37 -5 -32 27 5 55 32 70 69 9 20 23 34 37 37
206 39 308 68 327 91 20 24 9 24 -40 3z"/>
<path d="M770 296 c0 -9 7 -12 20 -9 11 3 17 9 14 14 -8 14 -34 10 -34 -5z"/>
</g>
</svg>
